<svg width="64" height="42" viewBox="0 0 64 42" fill="none" xmlns="http://www.w3.org/2000/svg">
<g clip-path="url(#clip0_0_331)">
<mask id="path-1-outside-1_0_331" maskUnits="userSpaceOnUse" x="11" y="0" width="42" height="42" fill="black">
<rect fill="white" x="11" width="42" height="42"/>
<path d="M12 21C12 9.95431 20.9543 1 32 1C43.0457 1 52 9.95431 52 21C52 32.0457 43.0457 41 32 41C20.9543 41 12 32.0457 12 21Z"/>
</mask>
<path d="M12 21C12 9.95431 20.9543 1 32 1C43.0457 1 52 9.95431 52 21C52 32.0457 43.0457 41 32 41C20.9543 41 12 32.0457 12 21Z" fill="#F4F6F8"/>
<rect width="44" height="44" transform="translate(10 7)" fill="white"/>
<path fill-rule="evenodd" clip-rule="evenodd" d="M32.0001 26.8001C35.6453 26.8001 38.6001 23.8452 38.6001 20.2001C38.6001 16.555 35.6453 13.6001 32.0001 13.6001C28.355 13.6001 25.4001 16.555 25.4001 20.2001C25.4001 23.8452 28.355 26.8001 32.0001 26.8001ZM16.6001 46.6001C16.6001 38.0949 23.4949 31.2001 32.0001 31.2001C40.5053 31.2001 47.4001 38.0949 47.4001 46.6001H16.6001Z" fill="#122E41"/>
</g>
<path d="M12 21M52 21M52 21M12 21M32 1M52 21M32 41M12 21M32 41V40C21.5066 40 13 31.4934 13 21H12H11C11 32.598 20.402 42 32 42V41ZM52 21H51C51 31.4934 42.4934 40 32 40V41V42C43.598 42 53 32.598 53 21H52ZM32 1V2C42.4934 2 51 10.5066 51 21H52H53C53 9.40202 43.598 0 32 0V1ZM32 1V0C20.402 0 11 9.40202 11 21H12H13C13 10.5066 21.5066 2 32 2V1Z" fill="#B7B7B7" mask="url(#path-1-outside-1_0_331)"/>
<defs>
<clipPath id="clip0_0_331">
<path d="M12 21C12 9.95431 20.9543 1 32 1C43.0457 1 52 9.95431 52 21C52 32.0457 43.0457 41 32 41C20.9543 41 12 32.0457 12 21Z" fill="white"/>
</clipPath>
</defs>
</svg>
