<svg width="24" height="24" viewBox="0 0 24 24" fill="none" xmlns="http://www.w3.org/2000/svg">
<path fill-rule="evenodd" clip-rule="evenodd" d="M9.59999 4.8C6.94903 4.8 4.79999 6.94903 4.79999 9.6C4.79999 12.2509 6.94903 14.4 9.59999 14.4C12.2509 14.4 14.4 12.2509 14.4 9.6C14.4 6.94903 12.2509 4.8 9.59999 4.8ZM2.39999 9.6C2.39999 5.62355 5.62354 2.4 9.59999 2.4C13.5764 2.4 16.8 5.62355 16.8 9.6C16.8 11.155 16.307 12.5948 15.4688 13.7718L21.2485 19.5515C21.7171 20.0201 21.7171 20.7799 21.2485 21.2485C20.7799 21.7171 20.0201 21.7171 19.5515 21.2485L13.7718 15.4688C12.5948 16.307 11.155 16.8 9.59999 16.8C5.62354 16.8 2.39999 13.5764 2.39999 9.6Z" fill="#FCFCFC"/>
</svg>
