<svg width="40" height="40" viewBox="0 0 40 40" fill="none" xmlns="http://www.w3.org/2000/svg">
<mask id="path-1-inside-1_482_6216" fill="white">
<path d="M0 6C0 2.68629 2.68629 0 6 0H34C37.3137 0 40 2.68629 40 6V34C40 37.3137 37.3137 40 34 40H6C2.68629 40 0 37.3137 0 34V6Z"/>
</mask>
<path d="M6 0V1H34V0V-1H6V0ZM40 6H39V34H40H41V6H40ZM34 40V39H6V40V41H34V40ZM0 34H1V6H0H-1V34H0ZM6 40V39C3.23858 39 1 36.7614 1 34H0H-1C-1 37.866 2.13401 41 6 41V40ZM40 34H39C39 36.7614 36.7614 39 34 39V40V41C37.866 41 41 37.866 41 34H40ZM34 0V1C36.7614 1 39 3.23858 39 6H40H41C41 2.13401 37.866 -1 34 -1V0ZM6 0V-1C2.13401 -1 -1 2.13401 -1 6H0H1C1 3.23858 3.23858 1 6 1V0Z" fill="#1E4D6D" mask="url(#path-1-inside-1_482_6216)"/>
<path d="M19.8523 23.4922C19.8699 23.5146 19.8923 23.5327 19.9179 23.5452C19.9435 23.5577 19.9715 23.5641 20 23.5641C20.0285 23.5641 20.0565 23.5577 20.0821 23.5452C20.1077 23.5327 20.1301 23.5146 20.1477 23.4922L22.7727 20.1711C22.8687 20.0492 22.782 19.8687 22.625 19.8687H20.8883V11.9375C20.8883 11.8344 20.8039 11.75 20.7008 11.75H19.2945C19.1914 11.75 19.107 11.8344 19.107 11.9375V19.8664H17.375C17.218 19.8664 17.1313 20.0469 17.2273 20.1688L19.8523 23.4922ZM28.5781 22.6719H27.1719C27.0688 22.6719 26.9844 22.7563 26.9844 22.8594V26.4688H13.0156V22.8594C13.0156 22.7563 12.9312 22.6719 12.8281 22.6719H11.4219C11.3187 22.6719 11.2344 22.7563 11.2344 22.8594V27.5C11.2344 27.9148 11.5695 28.25 11.9844 28.25H28.0156C28.4305 28.25 28.7656 27.9148 28.7656 27.5V22.8594C28.7656 22.7563 28.6812 22.6719 28.5781 22.6719Z" fill="#1E4D6D"/>
</svg>
