<svg width="24" height="24" viewBox="0 0 24 24" fill="none" xmlns="http://www.w3.org/2000/svg">
<path d="M6.43463 3.71094C8.28368 2.43087 10.5706 1.85536 12.8692 1.99902C15.1234 2.14003 17.2623 3.27064 18.8428 4.84961C20.7031 6.85725 21.7003 9.28387 21.7003 12.1504C21.7002 14.4176 20.8507 16.5598 19.4083 18.4375C17.9749 20.1539 15.9779 21.4327 13.7081 21.8584C11.4085 22.2896 9.13179 21.9994 7.1485 20.8662C5.1383 19.7175 3.5686 18.0009 2.71393 15.8643C1.85322 13.7124 1.7152 11.2844 2.42389 9.1582H2.42487L2.42682 9.14941C3.14694 6.84503 4.43241 4.99854 6.41998 3.7207L6.4278 3.71582L6.43463 3.71094ZM12.6348 2.50098C10.5902 2.34444 8.36769 2.81413 6.60553 4.0957C4.87004 5.35796 3.60403 7.09773 2.97174 9.30273C2.34207 11.3491 2.33589 13.5788 3.29596 15.6592C4.23749 17.6992 5.65659 19.2785 7.54791 20.3818C9.45841 21.4963 11.6893 21.8154 13.7628 21.3369C15.8141 20.8634 17.7127 19.7571 19.1368 18.0166L19.1456 18.0059L19.1544 17.9941C20.3265 16.3825 21.1066 14.4676 21.0674 12.3838L21.0489 11.9648C21.0401 9.45937 20.0996 6.94232 18.3536 5.19629C16.7781 3.62081 14.8676 2.66046 12.6348 2.50098ZM15.7999 8.55664L12.5391 11.9541L12.2071 12.2998L12.5391 12.6465L15.7999 16.042L15.4571 16.3848L12.211 13.0039L11.8497 12.6279L11.4893 13.0039L8.24225 16.3848L7.89948 16.042L11.1602 12.6465L11.4932 12.2998L11.1602 11.9541L7.89948 8.55664L8.24225 8.21387L11.4893 11.5967L11.8497 11.9717L12.211 11.5967L15.4571 8.21387L15.7999 8.55664Z" fill="black" stroke="#BA6364"/>
</svg>
