<svg width="40" height="40" viewBox="0 0 40 40" fill="none" xmlns="http://www.w3.org/2000/svg">
<mask id="path-1-inside-1_0_23" fill="white">
<path d="M0 0H40V40H0V0Z"/>
</mask>
<path d="M0 0H40V40H0V0Z" fill="#1E4D6D"/>
<path d="M0 40H1V0H0H-1V40H0Z" fill="#B7B7B7" mask="url(#path-1-inside-1_0_23)"/>
<path fill-rule="evenodd" clip-rule="evenodd" d="M29.75 11H27.5V9.5H26V11H14V9.5H12.5V11H10.25L9.5 11.75V29.75L10.25 30.5H29.75L30.5 29.75V11.75L29.75 11ZM29 29H11V15.5H29V29ZM29 14H11V12.5H29V14ZM14 20H12.5V21.5H14V20ZM12.5 23H14V24.5H12.5V23ZM14 26H12.5V27.5H14V26ZM17 20H18.5V21.5H17V20ZM18.5 23H17V24.5H18.5V23ZM17 26H18.5V27.5H17V26ZM18.5 17H17V18.5H18.5V17ZM21.5 20H23V21.5H21.5V20ZM23 23H21.5V24.5H23V23ZM21.5 26H23V27.5H21.5V26ZM23 17H21.5V18.5H23V17ZM26 20H27.5V21.5H26V20ZM27.5 23H26V24.5H27.5V23ZM26 17H27.5V18.5H26V17Z" fill="#FCFCFC"/>
</svg>
