<svg width="40" height="40" viewBox="0 0 40 40" fill="none" xmlns="http://www.w3.org/2000/svg">
<mask id="path-1-inside-1_482_6215" fill="white">
<path d="M0 6C0 2.68629 2.68629 0 6 0H34C37.3137 0 40 2.68629 40 6V34C40 37.3137 37.3137 40 34 40H6C2.68629 40 0 37.3137 0 34V6Z"/>
</mask>
<path d="M6 0V1H34V0V-1H6V0ZM40 6H39V34H40H41V6H40ZM34 40V39H6V40V41H34V40ZM0 34H1V6H0H-1V34H0ZM6 40V39C3.23858 39 1 36.7614 1 34H0H-1C-1 37.866 2.13401 41 6 41V40ZM40 34H39C39 36.7614 36.7614 39 34 39V40V41C37.866 41 41 37.866 41 34H40ZM34 0V1C36.7614 1 39 3.23858 39 6H40H41C41 2.13401 37.866 -1 34 -1V0ZM6 0V-1C2.13401 -1 -1 2.13401 -1 6H0H1C1 3.23858 3.23858 1 6 1V0Z" fill="#1E4D6D" mask="url(#path-1-inside-1_482_6215)"/>
<path d="M29 23.75C29 23.5511 28.921 23.3603 28.7803 23.2197C28.6397 23.079 28.4489 23 28.25 23H23.75C23.5511 23 23.3603 23.079 23.2197 23.2197C23.079 23.3603 23 23.5511 23 23.75C23 23.9489 23.079 24.1397 23.2197 24.2803C23.3603 24.421 23.5511 24.5 23.75 24.5H28.25C28.4489 24.5 28.6397 24.421 28.7803 24.2803C28.921 24.1397 29 23.9489 29 23.75ZM29 19.25C29 19.0511 28.921 18.8603 28.7803 18.7197C28.6397 18.579 28.4489 18.5 28.25 18.5H17.75C17.5511 18.5 17.3603 18.579 17.2197 18.7197C17.079 18.8603 17 19.0511 17 19.25C17 19.4489 17.079 19.6397 17.2197 19.7803C17.3603 19.921 17.5511 20 17.75 20H28.25C28.4489 20 28.6397 19.921 28.7803 19.7803C28.921 19.6397 29 19.4489 29 19.25ZM29 14.75C29 14.5511 28.921 14.3603 28.7803 14.2197C28.6397 14.079 28.4489 14 28.25 14H11.75C11.5511 14 11.3603 14.079 11.2197 14.2197C11.079 14.3603 11 14.5511 11 14.75C11 14.9489 11.079 15.1397 11.2197 15.2803C11.3603 15.421 11.5511 15.5 11.75 15.5H28.25C28.4489 15.5 28.6397 15.421 28.7803 15.2803C28.921 15.1397 29 14.9489 29 14.75Z" fill="#1E4D6D"/>
</svg>
