<svg width="16" height="16" viewBox="0 0 16 16" fill="none" xmlns="http://www.w3.org/2000/svg">
<path d="M4.15022 3.20741C3.88987 2.94706 3.46776 2.94706 3.20741 3.20741C2.94706 3.46776 2.94706 3.88987 3.20741 4.15022L7.05722 8.00002L3.20745 11.8498C2.9471 12.1102 2.9471 12.5323 3.20745 12.7926C3.4678 13.053 3.88991 13.053 4.15025 12.7926L8.00002 8.94282L11.8498 12.7926C12.1102 13.053 12.5323 13.053 12.7926 12.7926C13.053 12.5323 13.053 12.1102 12.7926 11.8498L8.94282 8.00002L12.7927 4.15022C13.053 3.88987 13.053 3.46776 12.7927 3.20741C12.5324 2.94706 12.1102 2.94706 11.8499 3.20741L8.00002 7.05722L4.15022 3.20741Z" fill="#0055BC"/>
</svg>
