<svg width="24" height="24" viewBox="0 0 24 24" fill="none" xmlns="http://www.w3.org/2000/svg">
<path fill-rule="evenodd" clip-rule="evenodd" d="M12.852 1.54649C15.2389 1.78518 17.4653 2.8575 19.14 4.57499C20.9644 6.42839 22.0431 8.88834 22.1704 11.4859C22.2976 14.0835 21.4645 16.6371 19.83 18.66C18.3266 20.5287 16.2169 21.8126 13.8663 22.2893C11.5158 22.766 9.07258 22.4054 6.95998 21.27C4.84284 20.11 3.19008 18.256 2.27998 16.02C1.36582 13.7725 1.24414 11.2808 1.93498 8.95499C2.62434 6.63823 4.09191 4.63025 6.08998 3.26999C8.07125 1.91836 10.4655 1.30812 12.852 1.54649ZM13.56 20.82C15.5742 20.4114 17.383 19.3134 18.675 17.715C20.0739 15.9764 20.7856 13.7846 20.675 11.5558C20.5644 9.32707 19.6392 7.21653 18.075 5.62499C16.6423 4.16251 14.7412 3.25007 12.7039 3.04717C10.6667 2.84427 8.62298 3.36382 6.92998 4.51499C5.65563 5.39308 4.62658 6.58199 3.94029 7.96908C3.25401 9.35617 2.93323 10.8955 3.00833 12.4413C3.08344 13.987 3.55196 15.488 4.36949 16.802C5.18703 18.116 6.3265 19.1996 7.67998 19.95C9.47747 20.9201 11.5586 21.228 13.56 20.82ZM11.0625 8.99999H12.9375V7.49999H11.0625V8.99999ZM12.9375 10.5V16.5H11.0625V10.5H12.9375Z" fill="#0055BC"/>
</svg>
