<svg width="70" height="24" viewBox="0 0 70 24" fill="none" xmlns="http://www.w3.org/2000/svg">
<path d="M69.8942 6.90805V9.7905C69.8942 10.0469 69.672 10.2421 69.4193 10.2152C69.2615 10.1984 69.1116 10.1897 68.9712 10.1897C67.4212 10.1897 66.2115 10.6435 65.3414 11.5511C64.4705 12.4595 64.0361 13.7678 64.0361 15.476V23.1414C64.0361 23.4911 63.7545 23.7751 63.4063 23.7751H61.8737C60.8696 23.7751 60.0552 22.9564 60.0552 21.9453V7.2985C60.0552 6.94885 60.3368 6.66476 60.685 6.66476H62.0265C63.0306 6.66476 63.845 7.48353 63.845 8.4946V9.16404C64.9323 7.4624 66.8023 6.56787 69.4548 6.47973C69.6951 6.47172 69.8949 6.66621 69.8949 6.90805H69.8942Z" fill="#082452"/>
<path d="M55.0547 16.5014H43.2422C43.0221 16.5014 42.8665 16.7126 42.9237 16.926C43.2067 17.9881 43.7859 18.8448 44.6589 19.4967C45.6464 20.2339 46.872 20.6018 48.3365 20.6018C49.2661 20.6018 50.1145 20.4481 50.8819 20.1414C52.3573 19.5506 54.0448 20.0052 55.0873 21.2107C54.3228 22.1293 53.357 22.8235 52.1893 23.2934C51.0216 23.7632 49.7055 23.9985 48.241 23.9985C46.3725 23.9985 44.727 23.6248 43.3052 22.8767C41.8826 22.1293 40.7844 21.0876 40.0098 19.7524C39.2345 18.4179 38.8472 16.9064 38.8472 15.2186C38.8472 13.5308 39.2236 12.052 39.978 10.7168C40.7309 9.38229 41.7769 8.34062 43.1148 7.59251C44.4519 6.84512 45.9591 6.4707 47.6365 6.4707C49.3139 6.4707 50.7733 6.8393 52.0786 7.57575C53.3838 8.31294 54.4031 9.34878 55.1358 10.684C55.8684 12.0193 56.234 13.5628 56.234 15.314C56.234 15.3169 56.234 15.3198 56.234 15.322C56.2333 15.9732 55.7019 16.4992 55.0547 16.4992V16.5014ZM44.4041 10.8137C43.6186 11.4897 43.1083 12.3645 42.8708 13.439C42.8252 13.6459 42.9852 13.8418 43.1951 13.8418H52.0503C52.2588 13.8418 52.4188 13.6488 52.3761 13.4434C52.156 12.3864 51.6594 11.5144 50.8841 10.8297C50.0132 10.0605 48.9309 9.67658 47.6358 9.67658C46.3406 9.67658 45.2844 10.0561 44.4034 10.8137H44.4041Z" fill="#082452"/>
<path d="M32.2725 7.56196C33.5778 8.28822 34.6022 9.31387 35.3456 10.6382C36.0884 11.9632 36.4605 13.49 36.4605 15.2201C36.4605 16.9501 36.0891 18.4835 35.3456 19.818C34.6022 21.1532 33.5785 22.184 32.2725 22.9102C30.9665 23.6365 29.4861 24 27.8304 24C26.6627 24 25.5957 23.7968 24.6299 23.391C23.9197 23.0931 23.2928 22.6844 22.7491 22.1665C22.5399 21.9669 22.1946 22.1206 22.1946 22.4105V23.1412C22.1946 23.4908 21.913 23.7749 21.5648 23.7749H19.9323C19.0889 23.7749 18.4048 23.0865 18.4048 22.2379V0.633745C18.4048 0.284093 18.6864 0 19.0346 0H20.8582C21.7016 0 22.3857 0.688378 22.3857 1.53701V7.95532C22.3857 8.23942 22.7187 8.39603 22.9308 8.20882C23.4825 7.72149 24.1022 7.33469 24.7899 7.04841C25.7129 6.66379 26.7272 6.47149 27.8312 6.47149C29.4868 6.47149 30.9673 6.83498 32.2733 7.56051L32.2725 7.56196ZM30.9984 19.0969C31.9424 18.1149 32.4151 16.8219 32.4151 15.2201C32.4151 13.6182 31.9424 12.326 30.9984 11.3433C30.0537 10.3614 28.849 9.86967 27.3845 9.86967C26.4289 9.86967 25.5696 10.0889 24.8051 10.5267C24.0406 10.9645 23.4354 11.5895 22.9902 12.401C22.5443 13.2132 22.3213 14.1529 22.3213 15.2208C22.3213 16.2887 22.5443 17.2291 22.9902 18.0406C23.4361 18.8528 24.0414 19.4778 24.8051 19.9149C25.5696 20.3527 26.4289 20.5719 27.3845 20.5719C28.849 20.5719 30.0537 20.081 30.9984 19.0983V19.0969Z" fill="#082452"/>
<path d="M9.83172 6.6643H12.5298C12.8904 6.6643 13.1821 6.95859 13.1821 7.32063V23.1402C13.1821 23.4899 12.9005 23.774 12.5523 23.774H11.0197C10.0156 23.774 9.20117 22.9552 9.20117 21.9441V7.29732C9.20117 6.94767 9.48278 6.66357 9.831 6.66357L9.83172 6.6643Z" fill="#082452"/>
<path d="M0.629827 0H2.1624C3.1665 0 3.98093 0.81877 3.98093 1.82985V23.1412C3.98093 23.4908 3.69932 23.7749 3.35111 23.7749H1.81853C0.81443 23.7749 0 22.9561 0 21.9451V0.633745C0 0.284093 0.281613 0 0.629827 0Z" fill="#082452"/>
<path d="M12.7723 0.227173L9.39007 3.63119C9.267 3.75502 9.1975 3.92402 9.19678 4.09957C9.19678 4.26347 9.32854 4.39678 9.49215 4.39678H10.8018H12.031C12.6623 4.39678 13.1741 3.88177 13.1741 3.24657V0.394715C13.1741 0.184195 12.9207 0.0785709 12.7723 0.227173Z" fill="#006AEB"/>
</svg>
