<svg width="40" height="40" viewBox="0 0 40 40" fill="none" xmlns="http://www.w3.org/2000/svg">
<mask id="path-1-inside-1_482_6217" fill="white">
<path d="M0 6C0 2.68629 2.68629 0 6 0H34C37.3137 0 40 2.68629 40 6V34C40 37.3137 37.3137 40 34 40H6C2.68629 40 0 37.3137 0 34V6Z"/>
</mask>
<path d="M6 0V1H34V0V-1H6V0ZM40 6H39V34H40H41V6H40ZM34 40V39H6V40V41H34V40ZM0 34H1V6H0H-1V34H0ZM6 40V39C3.23858 39 1 36.7614 1 34H0H-1C-1 37.866 2.13401 41 6 41V40ZM40 34H39C39 36.7614 36.7614 39 34 39V40V41C37.866 41 41 37.866 41 34H40ZM34 0V1C36.7614 1 39 3.23858 39 6H40H41C41 2.13401 37.866 -1 34 -1V0ZM6 0V-1C2.13401 -1 -1 2.13401 -1 6H0H1C1 3.23858 3.23858 1 6 1V0Z" fill="#1E4D6D" mask="url(#path-1-inside-1_482_6217)"/>
<path d="M17.375 15.4467H19.107V23.3757C19.107 23.4788 19.1914 23.5632 19.2945 23.5632H20.7008C20.8039 23.5632 20.8883 23.4788 20.8883 23.3757V15.4467H22.625C22.782 15.4467 22.8687 15.2663 22.7727 15.1444L20.1477 11.821C20.1301 11.7986 20.1077 11.7804 20.0821 11.768C20.0565 11.7555 20.0285 11.749 20 11.749C19.9715 11.749 19.9435 11.7555 19.9179 11.768C19.8923 11.7804 19.8699 11.7986 19.8523 11.821L17.2273 15.1421C17.1313 15.2663 17.218 15.4467 17.375 15.4467ZM28.5781 22.6725H27.1719C27.0688 22.6725 26.9844 22.7569 26.9844 22.86V26.4694H13.0156V22.86C13.0156 22.7569 12.9312 22.6725 12.8281 22.6725H11.4219C11.3187 22.6725 11.2344 22.7569 11.2344 22.86V27.5007C11.2344 27.9155 11.5695 28.2507 11.9844 28.2507H28.0156C28.4305 28.2507 28.7656 27.9155 28.7656 27.5007V22.86C28.7656 22.7569 28.6812 22.6725 28.5781 22.6725Z" fill="#1E4D6D"/>
</svg>
