<svg width="24" height="24" viewBox="0 0 24 24" fill="none" xmlns="http://www.w3.org/2000/svg">
<path d="M3.75 14H8.25C8.71413 14 9.15912 14.1845 9.4873 14.5127C9.81549 14.8409 10 15.2859 10 15.75V20.25C10 20.7141 9.81549 21.1591 9.4873 21.4873C9.15912 21.8155 8.71413 22 8.25 22H3.75C3.28587 22 2.84088 21.8155 2.5127 21.4873C2.18451 21.1591 2 20.7141 2 20.25V15.75C2 15.2859 2.18451 14.8409 2.5127 14.5127C2.84088 14.1845 3.28587 14 3.75 14ZM15.75 14H20.25C20.7141 14 21.1591 14.1845 21.4873 14.5127C21.8155 14.8409 22 15.2859 22 15.75V20.25C22 20.7141 21.8155 21.1591 21.4873 21.4873C21.1591 21.8155 20.7141 22 20.25 22H15.75C15.2859 22 14.8409 21.8155 14.5127 21.4873C14.1845 21.1591 14 20.7141 14 20.25V15.75C14 15.2859 14.1845 14.8409 14.5127 14.5127C14.8409 14.1845 15.2859 14 15.75 14ZM3.75 14.5C3.41848 14.5 3.10063 14.6318 2.86621 14.8662C2.63179 15.1006 2.5 15.4185 2.5 15.75V20.25C2.5 20.5815 2.63179 20.8994 2.86621 21.1338C3.10063 21.3682 3.41848 21.5 3.75 21.5H8.25C8.58152 21.5 8.89937 21.3682 9.13379 21.1338C9.36821 20.8994 9.5 20.5815 9.5 20.25V15.75C9.5 15.4185 9.36821 15.1006 9.13379 14.8662C8.89937 14.6318 8.58152 14.5 8.25 14.5H3.75ZM15.75 14.5C15.4185 14.5 15.1006 14.6318 14.8662 14.8662C14.6318 15.1006 14.5 15.4185 14.5 15.75V20.25C14.5 20.5815 14.6318 20.8994 14.8662 21.1338C15.1006 21.3682 15.4185 21.5 15.75 21.5H20.25C20.5815 21.5 20.8994 21.3682 21.1338 21.1338C21.3682 20.8994 21.5 20.5815 21.5 20.25V15.75C21.5 15.4185 21.3682 15.1006 21.1338 14.8662C20.8994 14.6318 20.5815 14.5 20.25 14.5H15.75ZM3.75 2H8.25C8.71413 2 9.15912 2.18451 9.4873 2.5127C9.81549 2.84088 10 3.28587 10 3.75V8.25C10 8.71413 9.81549 9.15912 9.4873 9.4873C9.15912 9.81549 8.71413 10 8.25 10H3.75C3.28587 10 2.84088 9.81549 2.5127 9.4873C2.18451 9.15912 2 8.71413 2 8.25V3.75C2 3.28587 2.18451 2.84088 2.5127 2.5127C2.84088 2.18451 3.28587 2 3.75 2ZM15.75 2H20.25C20.7141 2 21.1591 2.18451 21.4873 2.5127C21.8155 2.84088 22 3.28587 22 3.75V8.25C22 8.71413 21.8155 9.15912 21.4873 9.4873C21.1591 9.81549 20.7141 10 20.25 10H15.75C15.2859 10 14.8409 9.81549 14.5127 9.4873C14.1845 9.15912 14 8.71413 14 8.25V3.75C14 3.28587 14.1845 2.84088 14.5127 2.5127C14.8409 2.18451 15.2859 2 15.75 2ZM3.75 2.5C3.41848 2.5 3.10063 2.63179 2.86621 2.86621C2.63179 3.10063 2.5 3.41848 2.5 3.75V8.25C2.5 8.58152 2.63179 8.89937 2.86621 9.13379C3.10063 9.36821 3.41848 9.5 3.75 9.5H8.25C8.58152 9.5 8.89937 9.36821 9.13379 9.13379C9.36821 8.89937 9.5 8.58152 9.5 8.25V3.75C9.5 3.41848 9.36821 3.10063 9.13379 2.86621C8.89937 2.63179 8.58152 2.5 8.25 2.5H3.75ZM15.75 2.5C15.4185 2.5 15.1006 2.63179 14.8662 2.86621C14.6318 3.10063 14.5 3.41848 14.5 3.75V8.25C14.5 8.58152 14.6318 8.89937 14.8662 9.13379C15.1006 9.36821 15.4185 9.5 15.75 9.5H20.25C20.5815 9.5 20.8994 9.36821 21.1338 9.13379C21.3682 8.89937 21.5 8.58152 21.5 8.25V3.75C21.5 3.41848 21.3682 3.10063 21.1338 2.86621C20.8994 2.63179 20.5815 2.5 20.25 2.5H15.75Z" stroke="#7894A7"/>
</svg>
