<svg width="24" height="24" viewBox="0 0 24 24" fill="none" xmlns="http://www.w3.org/2000/svg">
<path d="M9.6001 10.0996H19.1997C20.2491 10.0996 21.1001 10.9507 21.1001 12V16.7998C21.1001 17.8492 20.2491 18.7002 19.1997 18.7002H9.6001C8.55075 18.7002 7.69971 17.8492 7.69971 16.7998V12C7.69971 10.9507 8.55076 10.0996 9.6001 10.0996ZM14.3999 11.5C12.7984 11.5 11.4997 12.7979 11.4995 14.3994C11.4995 16.0011 12.7982 17.2998 14.3999 17.2998C16.0016 17.2998 17.3003 16.0011 17.3003 14.3994C17.3001 12.7979 16.0014 11.5 14.3999 11.5ZM4.80029 5.2998H14.3999C15.2761 5.29981 16.0114 5.89356 16.231 6.7002H4.30029V13.8311C3.49369 13.6115 2.89999 12.8762 2.8999 12V7.2002C2.8999 6.15085 3.75095 5.2998 4.80029 5.2998Z" stroke="#7894A7"/>
</svg>
