<svg width="94" height="32" viewBox="0 0 94 32" fill="none" xmlns="http://www.w3.org/2000/svg">
<path d="M93.192 9.21042V13.0537C93.192 13.3956 92.8956 13.6559 92.5588 13.6199C92.3483 13.5976 92.1485 13.5859 91.9613 13.5859C89.8947 13.5859 88.2817 14.191 87.1215 15.4012C85.9603 16.6124 85.3812 18.3567 85.3812 20.6343V30.8549C85.3812 31.3211 85.0057 31.6999 84.5414 31.6999H82.498C81.1592 31.6999 80.0733 30.6082 80.0733 29.2601V9.73102C80.0733 9.26481 80.4487 8.88602 80.913 8.88602H82.7016C84.0404 8.88602 85.1263 9.97772 85.1263 11.3258V12.2184C86.5761 9.94955 89.0694 8.75685 92.6061 8.63933C92.9265 8.62864 93.1929 8.88797 93.1929 9.21042H93.192Z" fill="#082452"/>
<path d="M73.4064 22.0019H57.6564C57.3629 22.0019 57.1554 22.2835 57.2316 22.5681C57.6091 23.9842 58.3813 25.1264 59.5453 25.9957C60.862 26.9786 62.4961 27.4691 64.4488 27.4691C65.6882 27.4691 66.8195 27.2641 67.8426 26.8552C69.8098 26.0676 72.0598 26.6736 73.4498 28.2811C72.4305 29.5058 71.1428 30.4314 69.5859 31.0579C68.0289 31.6843 66.2741 31.9981 64.3214 31.9981C61.8301 31.9981 59.6361 31.4998 57.7403 30.5023C55.8436 29.5058 54.3793 28.1169 53.3465 26.3366C52.3127 24.5573 51.7963 22.5419 51.7963 20.2915C51.7963 18.0411 52.2983 16.0694 53.304 14.2891C54.3079 12.5098 55.7027 11.1209 57.4865 10.1234C59.2693 9.1269 61.2789 8.62767 63.5154 8.62767C65.7519 8.62767 67.6979 9.11913 69.4382 10.1011C71.1785 11.084 72.5376 12.4651 73.5145 14.2454C74.4913 16.0257 74.9787 18.0838 74.9787 20.4187C74.9787 20.4226 74.9787 20.4265 74.9787 20.4294C74.9778 21.2977 74.2693 21.999 73.4064 21.999V22.0019ZM59.2056 14.4183C58.1583 15.3196 57.4778 16.4861 57.1612 17.9187C57.1004 18.1946 57.3137 18.4558 57.5936 18.4558H69.4006C69.6786 18.4558 69.8919 18.1984 69.8349 17.9245C69.5415 16.5152 68.8793 15.3527 67.8455 14.4397C66.6843 13.414 65.2413 12.9022 63.5145 12.9022C61.7876 12.9022 60.3793 13.4082 59.2046 14.4183H59.2056Z" fill="#082452"/>
<path d="M43.0299 10.0826C44.7703 11.051 46.1361 12.4185 47.1274 14.1842C48.1178 15.951 48.6139 17.9867 48.6139 20.2934C48.6139 22.6002 48.1187 24.6447 47.1274 26.424C46.1361 28.2043 44.7712 29.5787 43.0299 30.547C41.2886 31.5153 39.3147 32 37.1072 32C35.5502 32 34.1274 31.729 32.8398 31.188C31.8929 30.7908 31.057 30.2459 30.3321 29.5553C30.0531 29.2892 29.5927 29.4942 29.5927 29.8807V30.8549C29.5927 31.3211 29.2172 31.6999 28.7529 31.6999H26.5763C25.4518 31.6999 24.5396 30.782 24.5396 29.6505V0.844994C24.5396 0.378791 24.9151 0 25.3794 0H27.8108C28.9354 0 29.8475 0.917838 29.8475 2.04935V10.6071C29.8475 10.9859 30.2915 11.1947 30.5744 10.9451C31.3099 10.2953 32.1361 9.77959 33.0531 9.39788C34.2838 8.88506 35.6361 8.62865 37.1081 8.62865C39.3157 8.62865 41.2896 9.1133 43.0309 10.0807L43.0299 10.0826ZM41.3311 25.4625C42.5898 24.1532 43.2201 22.4292 43.2201 20.2934C43.2201 18.1576 42.5898 16.4346 41.3311 15.1244C40.0714 13.8152 38.4653 13.1596 36.5126 13.1596C35.2384 13.1596 34.0927 13.4519 33.0734 14.0356C32.0541 14.6194 31.2471 15.4527 30.6535 16.5347C30.0589 17.6176 29.7616 18.8705 29.7616 20.2944C29.7616 21.7183 30.0589 22.9722 30.6535 24.0541C31.2481 25.1371 32.055 25.9704 33.0734 26.5532C34.0927 27.1369 35.2384 27.4293 36.5126 27.4293C38.4653 27.4293 40.0714 26.7746 41.3311 25.4644V25.4625Z" fill="#082452"/>
<path d="M13.109 8.88603H16.7065C17.1872 8.88603 17.5762 9.27841 17.5762 9.76113V30.8539C17.5762 31.3201 17.2007 31.6989 16.7364 31.6989H14.693C13.3542 31.6989 12.2683 30.6072 12.2683 29.2591V9.73005C12.2683 9.26385 12.6438 8.88506 13.1081 8.88506L13.109 8.88603Z" fill="#082452"/>
<path d="M0.839769 0H2.8832C4.222 0 5.30791 1.09169 5.30791 2.4398V30.8549C5.30791 31.3211 4.93243 31.6999 4.46814 31.6999H2.42471C1.08591 31.6999 0 30.6082 0 29.2601V0.844994C0 0.378791 0.375484 0 0.839769 0Z" fill="#082452"/>
<path d="M17.0299 0.30303L12.5203 4.84171C12.3562 5.00683 12.2635 5.23216 12.2625 5.46623C12.2625 5.68476 12.4382 5.8625 12.6564 5.8625H14.4025H16.0415C16.8832 5.8625 17.5656 5.17583 17.5656 4.32889V0.526418C17.5656 0.245725 17.2278 0.104893 17.0299 0.30303Z" fill="#006AEB"/>
</svg>
